<svg viewBox="0 0 3365 861">
  <path d="M503.164,760.978A388.918,388.918,0,0,1,389,778C174.161,778,0,603.839,0,389S174.161,0,389,0,778,174.161,778,389a388.575,388.575,0,0,1-20.11,123.788c-18.84-4.442-134.376-31.861-156.6-37.965A227.346,227.346,0,0,0,618,389c0-125.921-102.079-228-228-228S162,263.079,162,389,264.079,617,390,617a229.92,229.92,0,0,0,32.894-2.355C431.744,629.915,498.62,751.787,503.164,760.978Z"/>
  <path d="M462.927,509.211c98.5,23.278,353.729,83.976,353.729,83.976s10.571,6.242,10.334,11.279c-5.525,21.474-26.482,89.77-67.786,145.966C717.88,806.658,660.4,846.611,641.283,859.084c-6.989,3.567-13.525-2.643-13.525-2.643S491.18,626.789,439.865,540.193C419.635,507.539,425.809,498.972,462.927,509.211Z"/>
  <path d="M1164.65,808.124a10.088,10.088,0,1,0,20.16,0V561.585l103.63,157.079c2.42,3.78,5.24,5.46,8.87,5.46s6.45-1.68,8.87-5.46L1409.8,561.585V807.7c0,5.88,4.84,10.92,10.48,10.92s10.49-5.04,10.49-10.92v-275.1c0-5.88-4.84-10.92-10.49-10.92h-2.01c-4.44,0-8.07,2.52-10.49,6.3L1297.71,696.824,1187.64,527.985c-2.83-3.78-6.05-6.3-10.49-6.3h-2.01c-5.65,0-10.49,5.04-10.49,10.92V808.124Zm358.41-108.36c3.63-47.459,35.08-83.159,75.8-83.159,47.17,0,70.96,39.9,73.78,83.159H1523.06Zm160.07,87.36a10.276,10.276,0,0,0,3.22-7.14,9.649,9.649,0,0,0-9.67-9.66,8.637,8.637,0,0,0-6.46,2.94c-16.53,16.8-37.09,29.4-66.52,29.4-40.32,0-77.01-31.08-80.64-84.42h161.28c4.84,0,9.67-4.62,9.67-9.66,0-61.319-36.69-110.879-94.34-110.879-55.65,0-97.58,49.56-97.58,111.719v0.84c0,66.78,46.77,111.72,100.8,111.72C1639.99,821.984,1662.97,808.124,1683.13,787.124Zm135.39,33.6a81.886,81.886,0,0,0,29.03-5.46c4.03-1.68,6.45-4.62,6.45-8.82,0-5.04-4.43-9.24-8.87-9.24-2.82,0-9.27,4.2-23.38,4.2-23.79,0-41.13-10.92-41.13-41.58V621.645h64.51a9.492,9.492,0,0,0,9.28-9.24c0-5.04-4.44-9.66-9.28-9.66h-64.51v-59.64a10.193,10.193,0,0,0-10.08-10.5c-5.64,0-9.68,4.62-9.68,10.5v59.64h-22.17a9.483,9.483,0,0,0-9.27,9.24c0,5.04,4.43,9.66,9.27,9.66h22.17V761.924C1760.86,802.664,1786.67,820.724,1818.52,820.724Zm90.28-12.6c0,6.3,4.43,10.5,10.08,10.5s9.67-4.62,9.67-10.5v-78.96c0-68.879,39.11-102.9,82.66-107.1a10.994,10.994,0,0,0,10.48-11.34c0-6.3-4.43-11.34-10.48-11.34-29.03,0-64.92,22.68-82.66,64.26v-52.08c0-6.3-4.43-10.5-10.08-10.5s-9.67,4.62-9.67,10.5V808.124Zm162.32-271.739c0,7.14,5.24,12.6,12.1,12.6a12.469,12.469,0,0,0,12.5-12.6v-7.14a12.469,12.469,0,0,0-12.5-12.6c-6.86,0-12.1,5.46-12.1,12.6v7.14Zm2.42,271.739c0,6.3,4.44,10.5,10.08,10.5s9.68-4.2,9.68-10.5V611.565c0-6.3-4.44-10.5-10.08-10.5s-9.68,4.62-9.68,10.5V808.124Zm188.17,13.86c35.08,0,58.87-15.12,79.43-36.96a9.488,9.488,0,0,0,2.42-6.3c0-5.04-4.84-10.08-9.68-10.08-2.82,0-4.83,1.68-6.45,3.36-16.53,17.22-37.9,30.66-64.51,30.66-47.17,0-84.67-41.16-84.67-92.82V709c0-51.239,36.29-91.979,83.06-91.979,27.82,0,47.17,13.86,63.7,30.24a9.953,9.953,0,0,0,6.86,2.52,10.2,10.2,0,0,0,10.08-10.5,11.467,11.467,0,0,0-2.82-7.56c-18.55-18.06-41.94-34.02-77.42-34.02-58.87,0-104.83,52.08-104.83,112.139v0.84C2156.88,770.744,2202.44,821.984,2261.71,821.984Z"/>
  <path d="M1296.52,430.424c44.59,0,83.47-15.12,114.05-39.96l35.25,32.94c4.67,4.32,9.34,7.02,15.56,7.02,11.4,0,20.21-9.72,20.21-21.06,0-7.56-3.11-12.96-8.29-17.82l-34.21-29.7c27.47-35.1,43.02-79.379,43.02-126.9v-1.08c0-104.218-74.13-194.4-184.55-194.4s-185.59,91.259-185.59,195.477v1.08C1111.97,340.245,1186.1,430.424,1296.52,430.424Zm30.07-116.639,54.95,49.14C1358.73,380.744,1329.7,391,1297.56,391c-82.94,0-143.08-70.2-143.08-156.058v-1.08c0-85.859,59.1-154.978,142.04-154.978s143.08,70.2,143.08,156.058v1.08c0,37.8-10.88,71.819-30.58,98.819l-55.47-52.919c-4.67-4.32-8.81-7.02-15.55-7.02-10.89,0-20.22,9.72-20.22,21.6C1317.78,304.065,1320.89,308.925,1326.59,313.785Zm461.27-150.658c0-11.88-8.81-21.06-19.7-21.06-11.4,0-19.7,9.18-19.7,21.06V304.605c0,52.38-34.73,87.479-80.35,87.479-47.18,0-74.13-32.4-74.13-84.239V163.127c0-11.88-9.33-21.06-20.22-21.06-11.41,0-19.7,9.18-19.7,21.06V318.105c0,66.419,37.84,111.779,102.64,111.779,46.14,0,73.62-24.3,91.76-54.539v30.239c0,11.88,8.81,21.06,19.7,21.06,11.41,0,19.7-9.72,19.7-21.06V163.127Zm157.33,266.757c47.18,0,78.28-22.68,96.94-48.06V407.2c0,10.8,7.78,19.44,19.18,19.44,10.89,0,19.18-8.64,19.18-20.52V253.306c0-35.64-9.33-62.639-27.47-81.539-19.7-20.52-48.73-30.78-86.57-30.78-34.22,0-61.18,7.02-87.61,18.9-5.19,2.16-10.89,8.64-10.89,17.28a18.069,18.069,0,0,0,17.63,17.82,19.625,19.625,0,0,0,7.25-1.62,161.738,161.738,0,0,1,69.47-15.66c50.28,0,79.83,25.92,79.83,76.139v9.72c-23.84-7.02-48.21-11.88-82.42-11.88-67.91,0-114.57,31.32-114.57,90.179v1.08C1845.14,400.184,1895.43,429.884,1945.19,429.884Zm7.78-32.94c-36.29,0-67.39-20.519-67.39-55.619v-1.08c0-35.1,27.99-57.779,78.27-57.779a269.277,269.277,0,0,1,78.8,11.88v27C2042.65,365.625,2002.22,396.944,1952.97,396.944Zm202.17,8.64c0,11.88,8.81,21.06,20.22,21.06s19.7-9.18,19.7-21.06V264.106c0-52.379,34.21-87.479,80.35-87.479,47.17,0,74.13,32.4,74.13,84.239V405.584c0,11.88,8.81,21.06,20.22,21.06,10.89,0,19.7-9.18,19.7-21.06V250.606c0-66.419-37.84-111.779-102.65-111.779-46.13,0-74.13,24.3-91.75,54.54v-30.24c0-11.88-8.82-21.06-20.22-21.06-10.89,0-19.7,9.72-19.7,21.06V405.584Zm391.29,23.22c15.55,0,27.99-2.7,39.4-7.56,6.74-2.7,11.4-8.64,11.4-16.2,0-9.72-7.77-17.82-17.11-17.82-3.11,0-10.36,3.78-24.36,3.78-26.96,0-45.1-12.42-45.1-46.439V181.487h69.46a18.291,18.291,0,0,0,18.15-18.36c0-9.72-8.3-18.36-18.15-18.36h-69.46V78.888c0-11.34-9.33-21.06-20.22-21.06-11.4,0-19.7,9.72-19.7,21.06v65.879h-21.77c-9.33,0-17.63,8.1-17.63,18.36,0,9.72,8.3,18.36,17.63,18.36h21.77V349.965C2470.74,406.664,2503.4,428.8,2546.43,428.8Zm333.64-265.677c0-11.88-8.82-21.06-19.7-21.06-11.41,0-19.7,9.18-19.7,21.06V304.605c0,52.38-34.73,87.479-80.35,87.479-47.18,0-74.14-32.4-74.14-84.239V163.127c0-11.88-9.33-21.06-20.21-21.06-11.41,0-19.7,9.18-19.7,21.06V318.105c0,66.419,37.84,111.779,102.64,111.779,46.14,0,73.61-24.3,91.76-54.539v30.239c0,11.88,8.81,21.06,19.7,21.06,11.4,0,19.7-9.72,19.7-21.06V163.127Zm77.75,242.457c0,11.88,8.82,21.06,20.22,21.06s19.7-9.18,19.7-21.06V264.646c0-51.3,32.14-88.019,74.65-88.019s68.95,30.78,68.95,83.159v145.8c0,11.88,8.81,21.06,19.7,21.06,11.4,0,20.22-9.18,20.22-21.06V263.026c0-55.079,33.17-86.4,73.61-86.4,43.54,0,69.46,30.24,69.46,84.239V405.584c0,11.88,8.82,21.06,20.22,21.06,10.89,0,19.7-9.18,19.7-21.06V251.146c0-69.119-37.84-112.319-99.53-112.319-46.66,0-75.17,24.84-94.35,55.62-14.52-31.32-42.51-55.62-86.06-55.62-45.1,0-68.94,25.38-86.57,52.92v-28.62c0-11.88-8.81-21.06-20.22-21.06-10.88,0-19.7,9.72-19.7,21.06V405.584Z"/>
</svg>
