<?xml version="1.0" encoding="utf-8"?>
<svg viewBox="0 0 500 500" xmlns="http://www.w3.org/2000/svg">
  <g transform="matrix(1, 0, 0, 1, -4.274487, 3.426004)">
    <path id="Q" class="cls-1" d="M 299.206 411.975 C 280.643 417.655 261.337 420.533 241.925 420.515 C 134.131 420.515 46.747 333.131 46.747 225.338 C 46.747 117.544 134.131 30.16 241.925 30.16 C 349.719 30.16 437.102 117.544 437.102 225.338 C 437.125 246.451 433.717 267.427 427.012 287.447 C 417.56 285.219 359.59 271.461 348.44 268.398 C 353.994 254.722 356.842 240.098 356.824 225.338 C 356.824 162.158 305.606 110.941 242.426 110.941 C 179.247 110.941 128.029 162.158 128.029 225.338 C 128.029 288.518 179.247 339.734 242.426 339.734 C 247.949 339.736 253.465 339.342 258.931 338.553 C 263.371 346.214 296.926 407.363 299.206 411.975 Z"/>
    <path id="Q_Tip" data-name="Q Tip" class="cls-1" d="M 279.017 285.652 C 328.439 297.332 456.498 327.787 456.498 327.787 C 456.498 327.787 461.802 330.919 461.683 333.446 C 458.911 344.221 448.396 378.488 427.672 406.683 C 406.938 434.894 378.098 454.94 368.506 461.198 C 364.999 462.988 361.72 459.872 361.72 459.872 C 361.72 459.872 293.193 344.646 267.446 301.197 C 257.296 284.814 260.393 280.515 279.017 285.652 Z"/>
  </g>
</svg>